<?xml version="1.0" encoding="utf-8"?>
<!-- Svg Vector Icons : http://www.onlinewebfonts.com/icon -->
<!DOCTYPE svg PUBLIC "-//W3C//DTD SVG 1.1//EN" "http://www.w3.org/Graphics/SVG/1.1/DTD/svg11.dtd">
<svg version="1.1" xmlns="http://www.w3.org/2000/svg" xmlns:xlink="http://www.w3.org/1999/xlink" x="0px" y="0px" viewBox="0 0 256 256" enable-background="new 0 0 256 256" xml:space="preserve">
<metadata> Svg Vector Icons : http://www.onlinewebfonts.com/icon </metadata>
<g><g><path fill="#000000" d="M241,115.3l-36.8-0.5V84c0-2.8-2.3-5.1-5.1-5.1H151V46c0-2.8-2.3-5.1-5.1-5.1H86.7c-2.8,0-5.1,2.3-5.1,5.1v78.2H15.1c-2.8,0-5.1,2.3-5.1,5.1v54.5c0,2.8,2.3,5.1,5.1,5.1h35.2V205H19.4c-2.8,0-5.1,2.3-5.1,5.1c0,2.8,2.3,5.1,5.1,5.1h221.6c2.8,0,5.1-2.3,5.1-5.1v-89.6C246,117.7,243.8,115.4,241,115.3z M135.5,154.3H194v48.1h-58.6V154.3z M204.1,153.4c10.1,1.8,17.7,10.6,17.7,21.2c0,10.6-7.7,19.4-17.7,21.2V153.4z M194,149.3h-58.6V89H194V149.3z M81.6,205H60.4v-16.2h21.3V205z M90.5,178.6H20.1v-44.3h70.4L90.5,178.6L90.5,178.6z M91.8,188.8h3.8c2.8,0,5.1-2.3,5.1-5.1v-54.5c0-2.8-2.3-5.1-5.1-5.1h-3.8V51.1h49.1v27.8h-5.1h-5.4H95.6c-1.4,0-2.5,1.1-2.5,2.5c0,1.4,1.1,2.5,2.5,2.5h29.8v5.6H95.6c-1.4,0-2.5,1.1-2.5,2.5s1.1,2.5,2.5,2.5h29.8V205H91.8V188.8z M235.9,205h-31.7v-1.5c14.3-1.9,25.3-14.1,25.3-28.9c0-14.8-11.1-27-25.3-28.8V125l31.7,0.4L235.9,205L235.9,205z"/><path fill="#000000" d="M142.1,105.7v27.2c0,1.4,1.1,2.5,2.5,2.5c1.4,0,2.5-1.1,2.5-2.5v-27.2c0-1.4-1.1-2.5-2.5-2.5C143.3,103.2,142.1,104.3,142.1,105.7z"/><path fill="#000000" d="M144.7,165.5c-1.4,0-2.5,1.1-2.5,2.5v25.8c0,1.4,1.1,2.5,2.5,2.5c1.4,0,2.5-1.1,2.5-2.5V168C147.2,166.6,146.1,165.5,144.7,165.5z"/><path fill="#000000" d="M95.6,63.2h40.2c1.4,0,2.5-1.1,2.5-2.5c0-1.4-1.1-2.5-2.5-2.5H95.6c-1.4,0-2.5,1.1-2.5,2.5C93,62.1,94.2,63.2,95.6,63.2z"/><path fill="#000000" d="M95.6,73.9h40.2c1.4,0,2.5-1.1,2.5-2.5c0-1.4-1.1-2.5-2.5-2.5H95.6c-1.4,0-2.5,1.1-2.5,2.5C93,72.7,94.2,73.9,95.6,73.9z"/><path fill="#000000" d="M220.1,136.6c0,3.2,2.6,5.8,5.8,5.8s5.8-2.6,5.8-5.8s-2.6-5.8-5.8-5.8C222.7,130.8,220.1,133.4,220.1,136.6z"/></g></g>
</svg>